<?xml version="1.0" encoding="UTF-8"?>
<svg width="16px" height="20px" viewBox="0 0 16 20" version="1.1" xmlns="http://www.w3.org/2000/svg" xmlns:xlink="http://www.w3.org/1999/xlink">
    <title>icon_location</title>
    <g id="博物馆首页" stroke="none" stroke-width="1" fill="none" fill-rule="evenodd">
        <g transform="translate(-524.000000, -1109.000000)" fill="#FFFFFF" fill-rule="nonzero" id="编组-16">
            <g transform="translate(524.000000, 1103.000000)">
                <g id="icon_location" transform="translate(0.000000, 6.000000)">
                    <path d="M15.3838263,7.42771947 C15.3838263,3.33182252 12.0634542,0.0114503817 7.96755725,0.0114503817 C3.87166031,0.0114503817 0.551288168,3.33182252 0.551288168,7.42771947 C0.551288168,10.7729485 2.76631679,13.6004771 5.80956584,14.524666 L7.96755725,16.6826574 L10.1255487,14.524666 C13.1687977,13.6004771 15.3838263,10.7729485 15.3838263,7.42771947 Z M7.96755725,4.91374046 C9.3559876,4.91374046 10.4815363,6.03928912 10.4815363,7.42771947 C10.4815363,8.81614981 9.3559876,9.94169847 7.96755725,9.94169847 C6.57912691,9.94169847 5.45357824,8.81614981 5.45357824,7.42771947 C5.45357824,6.03928912 6.57912691,4.91374046 7.96755725,4.91374046 Z" id="形状"></path>
                    <path d="M0.00658396947,18.5940363 C0.00658396947,19.0206669 1.52393685,19.41489 3.98707058,19.6282053 C6.4502043,19.8415206 9.4849102,19.8415206 11.9480439,19.6282053 C14.4111777,19.41489 15.9285305,19.0206669 15.9285305,18.5940363 C15.9285305,17.9345224 12.3642814,17.3998807 7.96755725,17.3998807 C3.57083311,17.3998807 0.00658396947,17.9345224 0.00658396947,18.5940363 Z" id="路径" opacity="0.5"></path>
                </g>
            </g>
        </g>
    </g>
</svg>